%TF.GenerationSoftware,KiCad,Pcbnew,6.0.11-2627ca5db0~126~ubuntu22.04.1*%
%TF.CreationDate,2024-08-23T15:04:18+02:00*%
%TF.ProjectId,PowerMeTer,506f7765-724d-4655-9465-722e6b696361,rev?*%
%TF.SameCoordinates,Original*%
%TF.FileFunction,Copper,L2,Bot*%
%TF.FilePolarity,Positive*%
%FSLAX46Y46*%
G04 Gerber Fmt 4.6, Leading zero omitted, Abs format (unit mm)*
G04 Created by KiCad (PCBNEW 6.0.11-2627ca5db0~126~ubuntu22.04.1) date 2024-08-23 15:04:18*
%MOMM*%
%LPD*%
G01*
G04 APERTURE LIST*
G04 Aperture macros list*
%AMRoundRect*
0 Rectangle with rounded corners*
0 $1 Rounding radius*
0 $2 $3 $4 $5 $6 $7 $8 $9 X,Y pos of 4 corners*
0 Add a 4 corners polygon primitive as box body*
4,1,4,$2,$3,$4,$5,$6,$7,$8,$9,$2,$3,0*
0 Add four circle primitives for the rounded corners*
1,1,$1+$1,$2,$3*
1,1,$1+$1,$4,$5*
1,1,$1+$1,$6,$7*
1,1,$1+$1,$8,$9*
0 Add four rect primitives between the rounded corners*
20,1,$1+$1,$2,$3,$4,$5,0*
20,1,$1+$1,$4,$5,$6,$7,0*
20,1,$1+$1,$6,$7,$8,$9,0*
20,1,$1+$1,$8,$9,$2,$3,0*%
%AMRotRect*
0 Rectangle, with rotation*
0 The origin of the aperture is its center*
0 $1 length*
0 $2 width*
0 $3 Rotation angle, in degrees counterclockwise*
0 Add horizontal line*
21,1,$1,$2,0,0,$3*%
G04 Aperture macros list end*
%TA.AperFunction,ComponentPad*%
%ADD10RotRect,2.500000X2.500000X105.500000*%
%TD*%
%TA.AperFunction,ComponentPad*%
%ADD11C,2.500000*%
%TD*%
%TA.AperFunction,ComponentPad*%
%ADD12RoundRect,0.250000X0.620000X0.845000X-0.620000X0.845000X-0.620000X-0.845000X0.620000X-0.845000X0*%
%TD*%
%TA.AperFunction,ComponentPad*%
%ADD13O,1.740000X2.190000*%
%TD*%
%TA.AperFunction,ComponentPad*%
%ADD14O,2.800000X3.500000*%
%TD*%
%TA.AperFunction,ComponentPad*%
%ADD15R,1.900000X1.900000*%
%TD*%
%TA.AperFunction,ComponentPad*%
%ADD16C,1.900000*%
%TD*%
%TA.AperFunction,ComponentPad*%
%ADD17RotRect,2.500000X2.500000X254.500000*%
%TD*%
%TA.AperFunction,ViaPad*%
%ADD18C,0.800000*%
%TD*%
%TA.AperFunction,Conductor*%
%ADD19C,0.250000*%
%TD*%
G04 APERTURE END LIST*
D10*
%TO.P,J2,1,Pin_1*%
%TO.N,GND*%
X122697185Y-46500000D03*
D11*
%TO.P,J2,2,Pin_2*%
%TO.N,Net-(J2-Pad2)*%
X121360993Y-41681848D03*
%TD*%
D12*
%TO.P,J3,1,Pin_1*%
%TO.N,GND*%
X106350000Y-63430000D03*
D13*
%TO.P,J3,2,Pin_2*%
%TO.N,VCC*%
X103810000Y-63430000D03*
%TO.P,J3,3,Pin_3*%
%TO.N,CurrentControl*%
X101270000Y-63430000D03*
%TO.P,J3,4,Pin_4*%
%TO.N,CellCurrent*%
X98730000Y-63430000D03*
%TO.P,J3,5,Pin_5*%
%TO.N,CellVoltage*%
X96190000Y-63430000D03*
%TO.P,J3,6,Pin_6*%
%TO.N,ShuntCurrent*%
X93650000Y-63430000D03*
%TD*%
D14*
%TO.P,RV1,*%
%TO.N,*%
X104800000Y-42418000D03*
X95200000Y-42418000D03*
D15*
%TO.P,RV1,1,1*%
%TO.N,GND*%
X97500000Y-49418000D03*
D16*
%TO.P,RV1,2,2*%
%TO.N,CurrentControl*%
X100000000Y-49418000D03*
%TO.P,RV1,3,3*%
%TO.N,Net-(R13-Pad1)*%
X102500000Y-49418000D03*
%TD*%
D17*
%TO.P,J1,1,Pin_1*%
%TO.N,Net-(J1-Pad1)*%
X78740000Y-41640000D03*
D11*
%TO.P,J1,2,Pin_2*%
%TO.N,GND*%
X77403808Y-46458152D03*
%TD*%
D18*
%TO.N,GND*%
X103180000Y-53600000D03*
X111300000Y-56700000D03*
X112950000Y-48124500D03*
X90350000Y-47240000D03*
X100050000Y-45150000D03*
%TO.N,ShuntCurrent*%
X95700000Y-47371000D03*
X107550000Y-46200000D03*
X111715000Y-43845000D03*
%TO.N,CellCurrent*%
X105300000Y-52500000D03*
%TO.N,CellVoltage*%
X92792000Y-55118000D03*
%TO.N,VCC*%
X98200000Y-60930000D03*
X104010000Y-60960000D03*
X118950000Y-55500000D03*
X98480000Y-56220000D03*
%TO.N,CurrentControl*%
X106500000Y-53100000D03*
%TO.N,Net-(Q1-Pad3)*%
X84980000Y-53000000D03*
X86188000Y-62357000D03*
%TD*%
D19*
%TO.N,ShuntCurrent*%
X111715000Y-43845000D02*
X109905000Y-43845000D01*
X93650000Y-58250000D02*
X91776000Y-56376000D01*
X91776000Y-56376000D02*
X91776000Y-48006000D01*
X91776000Y-48006000D02*
X92411000Y-47371000D01*
X109905000Y-43845000D02*
X107550000Y-46200000D01*
X93650000Y-63430000D02*
X93650000Y-58250000D01*
X92411000Y-47371000D02*
X95700000Y-47371000D01*
%TO.N,CellCurrent*%
X102952000Y-58748000D02*
X102952000Y-55626000D01*
X104339000Y-54239000D02*
X104339000Y-53461000D01*
X102952000Y-55626000D02*
X104339000Y-54239000D01*
X98730000Y-63430000D02*
X98730000Y-62970000D01*
X104339000Y-53461000D02*
X105300000Y-52500000D01*
X98730000Y-62970000D02*
X102952000Y-58748000D01*
%TO.N,CellVoltage*%
X96190000Y-58516000D02*
X94662000Y-56988000D01*
X94662000Y-56988000D02*
X92792000Y-55118000D01*
X96190000Y-63430000D02*
X96190000Y-58516000D01*
%TO.N,VCC*%
X109429000Y-59690000D02*
X109040000Y-59690000D01*
X112500000Y-56550000D02*
X117900000Y-56550000D01*
X105280000Y-59690000D02*
X104010000Y-60960000D01*
X109360000Y-59690000D02*
X112500000Y-56550000D01*
X103810000Y-63430000D02*
X103810000Y-61160000D01*
X109040000Y-59690000D02*
X109360000Y-59690000D01*
X98200000Y-56500000D02*
X98200000Y-60930000D01*
X103810000Y-61160000D02*
X104010000Y-60960000D01*
X117900000Y-56550000D02*
X118950000Y-55500000D01*
X98480000Y-56220000D02*
X98200000Y-56500000D01*
X109040000Y-59690000D02*
X105280000Y-59690000D01*
%TO.N,CurrentControl*%
X106500000Y-53100000D02*
X106500000Y-52062000D01*
X104050000Y-59050000D02*
X104050000Y-56350000D01*
X104050000Y-55550000D02*
X106500000Y-53100000D01*
X100000000Y-49418000D02*
X100000000Y-50650000D01*
X100000000Y-50650000D02*
X100785000Y-51435000D01*
X104050000Y-56350000D02*
X104050000Y-55550000D01*
X106194000Y-51756000D02*
X105873000Y-51435000D01*
X101270000Y-62080000D02*
X104050000Y-59300000D01*
X105873000Y-51435000D02*
X100785000Y-51435000D01*
X104050000Y-59300000D02*
X104050000Y-59050000D01*
X106500000Y-52062000D02*
X106194000Y-51756000D01*
X101270000Y-63430000D02*
X101270000Y-62080000D01*
%TO.N,Net-(Q1-Pad3)*%
X86188000Y-62357000D02*
X86188000Y-54208000D01*
X86188000Y-54208000D02*
X84980000Y-53000000D01*
%TD*%
%TA.AperFunction,Conductor*%
%TO.N,GND*%
G36*
X123042580Y-37290461D02*
G01*
X123082813Y-37297057D01*
X123588030Y-37467292D01*
X123646197Y-37507999D01*
X123652024Y-37515897D01*
X123740245Y-37645773D01*
X123951675Y-37957031D01*
X123968806Y-37993953D01*
X126622507Y-47502353D01*
X126987947Y-48811750D01*
X126992585Y-48845621D01*
X126992585Y-49389175D01*
X126987950Y-49423033D01*
X123381365Y-62350435D01*
X122477575Y-65589971D01*
X122460412Y-65626949D01*
X122177074Y-66043742D01*
X122160309Y-66068403D01*
X122105470Y-66113494D01*
X122096216Y-66117011D01*
X121790035Y-66219805D01*
X121589834Y-66287018D01*
X121549732Y-66293570D01*
X100071072Y-66293570D01*
X84005435Y-66293463D01*
X83937315Y-66273461D01*
X83890822Y-66219805D01*
X83879437Y-66167875D01*
X83875737Y-65036248D01*
X83860287Y-60311787D01*
X83837072Y-53212556D01*
X83856851Y-53144370D01*
X83910354Y-53097702D01*
X83980595Y-53087369D01*
X84045272Y-53116650D01*
X84083850Y-53176251D01*
X84085844Y-53184084D01*
X84086458Y-53189928D01*
X84145473Y-53371556D01*
X84240960Y-53536944D01*
X84368747Y-53678866D01*
X84430048Y-53723404D01*
X84506385Y-53778866D01*
X84523248Y-53791118D01*
X84529276Y-53793802D01*
X84529278Y-53793803D01*
X84666040Y-53854693D01*
X84697712Y-53868794D01*
X84784479Y-53887237D01*
X84878056Y-53907128D01*
X84878061Y-53907128D01*
X84884513Y-53908500D01*
X84940405Y-53908500D01*
X85008526Y-53928502D01*
X85029501Y-53945405D01*
X85517596Y-54433501D01*
X85551621Y-54495813D01*
X85554500Y-54522596D01*
X85554500Y-61654476D01*
X85534498Y-61722597D01*
X85522142Y-61738779D01*
X85448960Y-61820056D01*
X85407979Y-61891037D01*
X85360005Y-61974131D01*
X85353473Y-61985444D01*
X85294458Y-62167072D01*
X85293768Y-62173633D01*
X85293768Y-62173635D01*
X85284567Y-62261183D01*
X85274496Y-62357000D01*
X85275186Y-62363565D01*
X85293510Y-62537905D01*
X85294458Y-62546928D01*
X85353473Y-62728556D01*
X85356776Y-62734278D01*
X85356777Y-62734279D01*
X85390686Y-62793010D01*
X85448960Y-62893944D01*
X85576747Y-63035866D01*
X85731248Y-63148118D01*
X85737276Y-63150802D01*
X85737278Y-63150803D01*
X85790119Y-63174329D01*
X85905712Y-63225794D01*
X85999113Y-63245647D01*
X86086056Y-63264128D01*
X86086061Y-63264128D01*
X86092513Y-63265500D01*
X86283487Y-63265500D01*
X86289939Y-63264128D01*
X86289944Y-63264128D01*
X86376887Y-63245647D01*
X86470288Y-63225794D01*
X86585881Y-63174329D01*
X86638722Y-63150803D01*
X86638724Y-63150802D01*
X86644752Y-63148118D01*
X86799253Y-63035866D01*
X86927040Y-62893944D01*
X86985314Y-62793010D01*
X87019223Y-62734279D01*
X87019224Y-62734278D01*
X87022527Y-62728556D01*
X87081542Y-62546928D01*
X87082491Y-62537905D01*
X87100814Y-62363565D01*
X87101504Y-62357000D01*
X87091433Y-62261183D01*
X87082232Y-62173635D01*
X87082232Y-62173633D01*
X87081542Y-62167072D01*
X87022527Y-61985444D01*
X87015996Y-61974131D01*
X86968021Y-61891037D01*
X86927040Y-61820056D01*
X86853863Y-61738785D01*
X86823147Y-61674779D01*
X86821500Y-61654476D01*
X86821500Y-54286767D01*
X86822027Y-54275584D01*
X86823702Y-54268091D01*
X86823109Y-54249206D01*
X86821562Y-54200014D01*
X86821500Y-54196055D01*
X86821500Y-54168144D01*
X86820995Y-54164144D01*
X86820062Y-54152301D01*
X86818922Y-54116030D01*
X86818673Y-54108111D01*
X86813021Y-54088657D01*
X86809013Y-54069300D01*
X86807468Y-54057070D01*
X86807468Y-54057069D01*
X86806474Y-54049203D01*
X86803555Y-54041830D01*
X86790196Y-54008088D01*
X86786351Y-53996858D01*
X86776229Y-53962017D01*
X86776229Y-53962016D01*
X86774018Y-53954407D01*
X86769985Y-53947588D01*
X86769983Y-53947583D01*
X86763707Y-53936972D01*
X86755012Y-53919224D01*
X86747552Y-53900383D01*
X86742772Y-53893803D01*
X86721564Y-53864613D01*
X86715048Y-53854693D01*
X86696580Y-53823465D01*
X86696578Y-53823462D01*
X86692542Y-53816638D01*
X86678221Y-53802317D01*
X86665380Y-53787283D01*
X86662086Y-53782749D01*
X86653472Y-53770893D01*
X86619395Y-53742702D01*
X86610616Y-53734712D01*
X85927122Y-53051218D01*
X85893096Y-52988906D01*
X85890907Y-52975293D01*
X85889678Y-52963593D01*
X85879869Y-52870271D01*
X85874232Y-52816635D01*
X85874232Y-52816633D01*
X85873542Y-52810072D01*
X85814527Y-52628444D01*
X85719040Y-52463056D01*
X85703541Y-52445842D01*
X85595675Y-52326045D01*
X85595674Y-52326044D01*
X85591253Y-52321134D01*
X85436752Y-52208882D01*
X85430724Y-52206198D01*
X85430722Y-52206197D01*
X85268319Y-52133891D01*
X85268318Y-52133891D01*
X85262288Y-52131206D01*
X85168887Y-52111353D01*
X85081944Y-52092872D01*
X85081939Y-52092872D01*
X85075487Y-52091500D01*
X84884513Y-52091500D01*
X84878061Y-52092872D01*
X84878056Y-52092872D01*
X84791112Y-52111353D01*
X84697712Y-52131206D01*
X84691682Y-52133891D01*
X84691681Y-52133891D01*
X84529278Y-52206197D01*
X84529276Y-52206198D01*
X84523248Y-52208882D01*
X84368747Y-52321134D01*
X84364326Y-52326044D01*
X84364325Y-52326045D01*
X84256460Y-52445842D01*
X84240960Y-52463056D01*
X84145473Y-52628444D01*
X84086458Y-52810072D01*
X84085768Y-52816635D01*
X84084950Y-52820485D01*
X84051221Y-52882957D01*
X83989070Y-52917277D01*
X83918231Y-52912548D01*
X83861195Y-52870271D01*
X83836069Y-52803869D01*
X83835705Y-52794697D01*
X83834967Y-52568774D01*
X83830000Y-51050000D01*
X83817026Y-51049809D01*
X83817024Y-51049809D01*
X73580823Y-50899415D01*
X73513003Y-50878415D01*
X73467304Y-50824082D01*
X73461309Y-50807288D01*
X73075081Y-49422888D01*
X73070446Y-49389029D01*
X73070446Y-48845428D01*
X73075078Y-48811577D01*
X73430447Y-47537456D01*
X76020226Y-47537456D01*
X76025044Y-47550104D01*
X76070515Y-47610998D01*
X76076620Y-47618022D01*
X76255561Y-47795407D01*
X76262645Y-47801457D01*
X76465826Y-47950436D01*
X76473736Y-47955379D01*
X76696698Y-48072685D01*
X76705261Y-48076408D01*
X76943112Y-48159470D01*
X76952121Y-48161884D01*
X77199650Y-48208879D01*
X77208906Y-48209933D01*
X77460665Y-48219825D01*
X77469979Y-48219499D01*
X77720423Y-48192072D01*
X77729600Y-48190371D01*
X77973244Y-48126224D01*
X77982057Y-48123190D01*
X78023292Y-48105473D01*
X78034698Y-48096033D01*
X78031549Y-48083496D01*
X77976356Y-47985943D01*
X91137780Y-47985943D01*
X91138526Y-47993835D01*
X91141941Y-48029961D01*
X91142500Y-48041819D01*
X91142500Y-56297233D01*
X91141973Y-56308416D01*
X91140298Y-56315909D01*
X91140547Y-56323835D01*
X91140547Y-56323836D01*
X91142438Y-56383986D01*
X91142500Y-56387945D01*
X91142500Y-56415856D01*
X91142997Y-56419790D01*
X91142997Y-56419791D01*
X91143005Y-56419856D01*
X91143938Y-56431693D01*
X91145327Y-56475889D01*
X91148798Y-56487835D01*
X91150978Y-56495339D01*
X91154987Y-56514700D01*
X91157526Y-56534797D01*
X91160445Y-56542168D01*
X91160445Y-56542170D01*
X91173804Y-56575912D01*
X91177649Y-56587142D01*
X91180594Y-56597279D01*
X91189982Y-56629593D01*
X91194015Y-56636412D01*
X91194017Y-56636417D01*
X91200293Y-56647028D01*
X91208988Y-56664776D01*
X91216448Y-56683617D01*
X91221110Y-56690033D01*
X91221110Y-56690034D01*
X91242436Y-56719387D01*
X91248952Y-56729307D01*
X91265297Y-56756944D01*
X91271458Y-56767362D01*
X91285779Y-56781683D01*
X91298619Y-56796716D01*
X91310528Y-56813107D01*
X91316634Y-56818158D01*
X91344605Y-56841298D01*
X91353384Y-56849288D01*
X92979595Y-58475499D01*
X93013621Y-58537811D01*
X93016500Y-58564594D01*
X93016500Y-61906010D01*
X92996498Y-61974131D01*
X92955865Y-62013729D01*
X92839420Y-62084389D01*
X92839416Y-62084392D01*
X92834856Y-62087159D01*
X92658166Y-62240483D01*
X92509835Y-62421386D01*
X92394104Y-62624695D01*
X92314284Y-62844596D01*
X92272656Y-63074803D01*
X92271500Y-63099316D01*
X92271500Y-63713738D01*
X92286295Y-63888102D01*
X92345067Y-64114540D01*
X92347259Y-64119406D01*
X92347260Y-64119409D01*
X92413864Y-64267264D01*
X92441150Y-64327837D01*
X92444134Y-64332270D01*
X92444135Y-64332271D01*
X92457537Y-64352178D01*
X92571798Y-64521896D01*
X92733276Y-64691168D01*
X92920965Y-64830813D01*
X92925716Y-64833229D01*
X92925720Y-64833231D01*
X93040197Y-64891434D01*
X93129500Y-64936838D01*
X93352917Y-65006210D01*
X93358204Y-65006911D01*
X93358205Y-65006911D01*
X93579545Y-65036248D01*
X93579549Y-65036248D01*
X93584829Y-65036948D01*
X93590158Y-65036748D01*
X93590160Y-65036748D01*
X93701717Y-65032560D01*
X93818604Y-65028172D01*
X93930813Y-65004628D01*
X94042332Y-64981229D01*
X94042335Y-64981228D01*
X94047559Y-64980132D01*
X94265146Y-64894203D01*
X94374860Y-64827627D01*
X94460583Y-64775609D01*
X94460586Y-64775607D01*
X94465144Y-64772841D01*
X94641834Y-64619517D01*
X94790165Y-64438614D01*
X94792801Y-64433984D01*
X94792804Y-64433979D01*
X94811301Y-64401484D01*
X94862384Y-64352178D01*
X94932015Y-64338317D01*
X94998085Y-64364301D01*
X95025323Y-64393450D01*
X95052049Y-64433148D01*
X95111798Y-64521896D01*
X95273276Y-64691168D01*
X95460965Y-64830813D01*
X95465716Y-64833229D01*
X95465720Y-64833231D01*
X95580197Y-64891434D01*
X95669500Y-64936838D01*
X95892917Y-65006210D01*
X95898204Y-65006911D01*
X95898205Y-65006911D01*
X96119545Y-65036248D01*
X96119549Y-65036248D01*
X96124829Y-65036948D01*
X96130158Y-65036748D01*
X96130160Y-65036748D01*
X96241717Y-65032560D01*
X96358604Y-65028172D01*
X96470813Y-65004628D01*
X96582332Y-64981229D01*
X96582335Y-64981228D01*
X96587559Y-64980132D01*
X96805146Y-64894203D01*
X96914860Y-64827627D01*
X97000583Y-64775609D01*
X97000586Y-64775607D01*
X97005144Y-64772841D01*
X97181834Y-64619517D01*
X97330165Y-64438614D01*
X97332801Y-64433984D01*
X97332804Y-64433979D01*
X97351301Y-64401484D01*
X97402384Y-64352178D01*
X97472015Y-64338317D01*
X97538085Y-64364301D01*
X97565323Y-64393450D01*
X97592049Y-64433148D01*
X97651798Y-64521896D01*
X97813276Y-64691168D01*
X98000965Y-64830813D01*
X98005716Y-64833229D01*
X98005720Y-64833231D01*
X98120197Y-64891434D01*
X98209500Y-64936838D01*
X98432917Y-65006210D01*
X98438204Y-65006911D01*
X98438205Y-65006911D01*
X98659545Y-65036248D01*
X98659549Y-65036248D01*
X98664829Y-65036948D01*
X98670158Y-65036748D01*
X98670160Y-65036748D01*
X98781717Y-65032560D01*
X98898604Y-65028172D01*
X99010813Y-65004628D01*
X99122332Y-64981229D01*
X99122335Y-64981228D01*
X99127559Y-64980132D01*
X99345146Y-64894203D01*
X99454860Y-64827627D01*
X99540583Y-64775609D01*
X99540586Y-64775607D01*
X99545144Y-64772841D01*
X99721834Y-64619517D01*
X99870165Y-64438614D01*
X99872801Y-64433984D01*
X99872804Y-64433979D01*
X99891301Y-64401484D01*
X99942384Y-64352178D01*
X100012015Y-64338317D01*
X100078085Y-64364301D01*
X100105323Y-64393450D01*
X100132049Y-64433148D01*
X100191798Y-64521896D01*
X100353276Y-64691168D01*
X100540965Y-64830813D01*
X100545716Y-64833229D01*
X100545720Y-64833231D01*
X100660197Y-64891434D01*
X100749500Y-64936838D01*
X100972917Y-65006210D01*
X100978204Y-65006911D01*
X100978205Y-65006911D01*
X101199545Y-65036248D01*
X101199549Y-65036248D01*
X101204829Y-65036948D01*
X101210158Y-65036748D01*
X101210160Y-65036748D01*
X101321717Y-65032560D01*
X101438604Y-65028172D01*
X101550813Y-65004628D01*
X101662332Y-64981229D01*
X101662335Y-64981228D01*
X101667559Y-64980132D01*
X101885146Y-64894203D01*
X101994860Y-64827627D01*
X102080583Y-64775609D01*
X102080586Y-64775607D01*
X102085144Y-64772841D01*
X102261834Y-64619517D01*
X102410165Y-64438614D01*
X102412801Y-64433984D01*
X102412804Y-64433979D01*
X102431301Y-64401484D01*
X102482384Y-64352178D01*
X102552015Y-64338317D01*
X102618085Y-64364301D01*
X102645323Y-64393450D01*
X102672049Y-64433148D01*
X102731798Y-64521896D01*
X102893276Y-64691168D01*
X103080965Y-64830813D01*
X103085716Y-64833229D01*
X103085720Y-64833231D01*
X103200197Y-64891434D01*
X103289500Y-64936838D01*
X103512917Y-65006210D01*
X103518204Y-65006911D01*
X103518205Y-65006911D01*
X103739545Y-65036248D01*
X103739549Y-65036248D01*
X103744829Y-65036948D01*
X103750158Y-65036748D01*
X103750160Y-65036748D01*
X103861717Y-65032560D01*
X103978604Y-65028172D01*
X104090813Y-65004628D01*
X104202332Y-64981229D01*
X104202335Y-64981228D01*
X104207559Y-64980132D01*
X104425146Y-64894203D01*
X104534860Y-64827627D01*
X104620583Y-64775609D01*
X104620586Y-64775607D01*
X104625144Y-64772841D01*
X104801834Y-64619517D01*
X104832761Y-64581799D01*
X104891421Y-64541804D01*
X104962391Y-64539873D01*
X105023139Y-64576617D01*
X105038220Y-64599157D01*
X105038906Y-64598732D01*
X105128063Y-64742807D01*
X105137099Y-64754208D01*
X105251829Y-64868739D01*
X105263240Y-64877751D01*
X105401243Y-64962816D01*
X105414424Y-64968963D01*
X105568710Y-65020138D01*
X105582086Y-65023005D01*
X105676438Y-65032672D01*
X105682854Y-65033000D01*
X106077885Y-65033000D01*
X106093124Y-65028525D01*
X106094329Y-65027135D01*
X106096000Y-65019452D01*
X106096000Y-65014884D01*
X106604000Y-65014884D01*
X106608475Y-65030123D01*
X106609865Y-65031328D01*
X106617548Y-65032999D01*
X107017095Y-65032999D01*
X107023614Y-65032662D01*
X107119206Y-65022743D01*
X107132600Y-65019851D01*
X107286784Y-64968412D01*
X107299962Y-64962239D01*
X107437807Y-64876937D01*
X107449208Y-64867901D01*
X107563739Y-64753171D01*
X107572751Y-64741760D01*
X107657816Y-64603757D01*
X107663963Y-64590576D01*
X107715138Y-64436290D01*
X107718005Y-64422914D01*
X107727672Y-64328562D01*
X107728000Y-64322146D01*
X107728000Y-63702115D01*
X107723525Y-63686876D01*
X107722135Y-63685671D01*
X107714452Y-63684000D01*
X106622115Y-63684000D01*
X106606876Y-63688475D01*
X106605671Y-63689865D01*
X106604000Y-63697548D01*
X106604000Y-65014884D01*
X106096000Y-65014884D01*
X106096000Y-63157885D01*
X106604000Y-63157885D01*
X106608475Y-63173124D01*
X106609865Y-63174329D01*
X106617548Y-63176000D01*
X107709884Y-63176000D01*
X107725123Y-63171525D01*
X107726328Y-63170135D01*
X107727999Y-63162452D01*
X107727999Y-62537905D01*
X107727662Y-62531386D01*
X107717743Y-62435794D01*
X107714851Y-62422400D01*
X107663412Y-62268216D01*
X107657239Y-62255038D01*
X107571937Y-62117193D01*
X107562901Y-62105792D01*
X107448171Y-61991261D01*
X107436760Y-61982249D01*
X107298757Y-61897184D01*
X107285576Y-61891037D01*
X107131290Y-61839862D01*
X107117914Y-61836995D01*
X107023562Y-61827328D01*
X107017145Y-61827000D01*
X106622115Y-61827000D01*
X106606876Y-61831475D01*
X106605671Y-61832865D01*
X106604000Y-61840548D01*
X106604000Y-63157885D01*
X106096000Y-63157885D01*
X106096000Y-61845116D01*
X106091525Y-61829877D01*
X106090135Y-61828672D01*
X106082452Y-61827001D01*
X105682905Y-61827001D01*
X105676386Y-61827338D01*
X105580794Y-61837257D01*
X105567400Y-61840149D01*
X105413216Y-61891588D01*
X105400038Y-61897761D01*
X105262193Y-61983063D01*
X105250792Y-61992099D01*
X105136261Y-62106829D01*
X105127249Y-62118240D01*
X105038342Y-62262475D01*
X105036245Y-62261183D01*
X104997044Y-62305692D01*
X104928764Y-62325144D01*
X104860807Y-62304593D01*
X104838614Y-62286122D01*
X104726724Y-62168832D01*
X104657319Y-62117193D01*
X104543323Y-62032377D01*
X104543320Y-62032375D01*
X104539035Y-62029187D01*
X104512392Y-62015641D01*
X104460736Y-61966938D01*
X104443500Y-61903326D01*
X104443500Y-61832212D01*
X104463502Y-61764091D01*
X104495439Y-61730276D01*
X104572752Y-61674104D01*
X104621253Y-61638866D01*
X104749040Y-61496944D01*
X104844527Y-61331556D01*
X104903542Y-61149928D01*
X104920907Y-60984706D01*
X104947920Y-60919050D01*
X104957122Y-60908782D01*
X105505499Y-60360405D01*
X105567811Y-60326379D01*
X105594594Y-60323500D01*
X109281233Y-60323500D01*
X109292416Y-60324027D01*
X109299909Y-60325702D01*
X109307835Y-60325453D01*
X109307836Y-60325453D01*
X109367986Y-60323562D01*
X109371945Y-60323500D01*
X109468856Y-60323500D01*
X109525568Y-60316335D01*
X109579932Y-60309468D01*
X109579935Y-60309467D01*
X109587797Y-60308474D01*
X109736617Y-60249552D01*
X109866107Y-60155472D01*
X109968133Y-60032144D01*
X110007098Y-59949340D01*
X110032010Y-59913894D01*
X112725499Y-57220405D01*
X112787811Y-57186379D01*
X112814594Y-57183500D01*
X117821233Y-57183500D01*
X117832416Y-57184027D01*
X117839909Y-57185702D01*
X117847835Y-57185453D01*
X117847836Y-57185453D01*
X117907986Y-57183562D01*
X117911945Y-57183500D01*
X117939856Y-57183500D01*
X117943791Y-57183003D01*
X117943856Y-57182995D01*
X117955693Y-57182062D01*
X117987951Y-57181048D01*
X117991970Y-57180922D01*
X117999889Y-57180673D01*
X118019343Y-57175021D01*
X118038700Y-57171013D01*
X118050930Y-57169468D01*
X118050931Y-57169468D01*
X118058797Y-57168474D01*
X118066168Y-57165555D01*
X118066170Y-57165555D01*
X118099912Y-57152196D01*
X118111142Y-57148351D01*
X118145983Y-57138229D01*
X118145984Y-57138229D01*
X118153593Y-57136018D01*
X118160412Y-57131985D01*
X118160417Y-57131983D01*
X118171028Y-57125707D01*
X118188776Y-57117012D01*
X118207617Y-57109552D01*
X118243387Y-57083564D01*
X118253307Y-57077048D01*
X118284535Y-57058580D01*
X118284538Y-57058578D01*
X118291362Y-57054542D01*
X118305683Y-57040221D01*
X118320717Y-57027380D01*
X118330694Y-57020131D01*
X118337107Y-57015472D01*
X118365298Y-56981395D01*
X118373288Y-56972616D01*
X118900499Y-56445405D01*
X118962811Y-56411379D01*
X118989594Y-56408500D01*
X119045487Y-56408500D01*
X119051939Y-56407128D01*
X119051944Y-56407128D01*
X119151538Y-56385958D01*
X119232288Y-56368794D01*
X119238319Y-56366109D01*
X119400722Y-56293803D01*
X119400724Y-56293802D01*
X119406752Y-56291118D01*
X119561253Y-56178866D01*
X119638414Y-56093170D01*
X119684621Y-56041852D01*
X119684622Y-56041851D01*
X119689040Y-56036944D01*
X119784527Y-55871556D01*
X119843542Y-55689928D01*
X119846497Y-55661819D01*
X119862814Y-55506565D01*
X119863504Y-55500000D01*
X119852848Y-55398616D01*
X119844232Y-55316635D01*
X119844232Y-55316633D01*
X119843542Y-55310072D01*
X119784527Y-55128444D01*
X119781008Y-55122348D01*
X119692341Y-54968774D01*
X119689040Y-54963056D01*
X119561253Y-54821134D01*
X119458451Y-54746444D01*
X119412094Y-54712763D01*
X119412093Y-54712762D01*
X119406752Y-54708882D01*
X119400724Y-54706198D01*
X119400722Y-54706197D01*
X119238319Y-54633891D01*
X119238318Y-54633891D01*
X119232288Y-54631206D01*
X119138888Y-54611353D01*
X119051944Y-54592872D01*
X119051939Y-54592872D01*
X119045487Y-54591500D01*
X118854513Y-54591500D01*
X118848061Y-54592872D01*
X118848056Y-54592872D01*
X118761113Y-54611353D01*
X118667712Y-54631206D01*
X118661682Y-54633891D01*
X118661681Y-54633891D01*
X118499278Y-54706197D01*
X118499276Y-54706198D01*
X118493248Y-54708882D01*
X118487907Y-54712762D01*
X118487906Y-54712763D01*
X118441549Y-54746444D01*
X118338747Y-54821134D01*
X118210960Y-54963056D01*
X118207659Y-54968774D01*
X118118993Y-55122348D01*
X118115473Y-55128444D01*
X118056458Y-55310072D01*
X118055768Y-55316633D01*
X118055768Y-55316635D01*
X118039093Y-55475292D01*
X118012080Y-55540949D01*
X118002878Y-55551217D01*
X117674500Y-55879595D01*
X117612188Y-55913621D01*
X117585405Y-55916500D01*
X112578768Y-55916500D01*
X112567585Y-55915973D01*
X112560092Y-55914298D01*
X112552166Y-55914547D01*
X112552165Y-55914547D01*
X112492002Y-55916438D01*
X112488044Y-55916500D01*
X112460144Y-55916500D01*
X112456154Y-55917004D01*
X112444320Y-55917936D01*
X112400111Y-55919326D01*
X112392495Y-55921539D01*
X112392493Y-55921539D01*
X112380652Y-55924979D01*
X112361293Y-55928988D01*
X112359983Y-55929154D01*
X112341203Y-55931526D01*
X112333837Y-55934442D01*
X112333831Y-55934444D01*
X112300098Y-55947800D01*
X112288868Y-55951645D01*
X112254017Y-55961770D01*
X112246407Y-55963981D01*
X112239584Y-55968016D01*
X112228966Y-55974295D01*
X112211213Y-55982992D01*
X112203568Y-55986019D01*
X112192383Y-55990448D01*
X112185968Y-55995109D01*
X112156612Y-56016437D01*
X112146695Y-56022951D01*
X112108638Y-56045458D01*
X112094317Y-56059779D01*
X112079284Y-56072619D01*
X112062893Y-56084528D01*
X112057842Y-56090634D01*
X112034702Y-56118605D01*
X112026712Y-56127384D01*
X109134500Y-59019595D01*
X109072188Y-59053621D01*
X109045405Y-59056500D01*
X105358767Y-59056500D01*
X105347584Y-59055973D01*
X105340091Y-59054298D01*
X105332165Y-59054547D01*
X105332164Y-59054547D01*
X105272014Y-59056438D01*
X105268055Y-59056500D01*
X105240144Y-59056500D01*
X105236210Y-59056997D01*
X105236209Y-59056997D01*
X105236144Y-59057005D01*
X105224307Y-59057938D01*
X105192490Y-59058938D01*
X105188029Y-59059078D01*
X105180110Y-59059327D01*
X105162454Y-59064456D01*
X105160658Y-59064978D01*
X105141306Y-59068986D01*
X105134235Y-59069880D01*
X105121203Y-59071526D01*
X105113834Y-59074443D01*
X105113832Y-59074444D01*
X105080097Y-59087800D01*
X105068869Y-59091645D01*
X105026407Y-59103982D01*
X105019585Y-59108016D01*
X105019579Y-59108019D01*
X105008968Y-59114294D01*
X104991218Y-59122990D01*
X104979756Y-59127528D01*
X104979751Y-59127531D01*
X104972383Y-59130448D01*
X104965968Y-59135109D01*
X104936625Y-59156427D01*
X104926707Y-59162943D01*
X104895458Y-59181424D01*
X104888637Y-59185458D01*
X104885363Y-59188732D01*
X104820643Y-59214144D01*
X104751020Y-59200245D01*
X104699964Y-59150911D01*
X104683500Y-59088638D01*
X104683500Y-55864594D01*
X104703502Y-55796473D01*
X104720405Y-55775499D01*
X106450499Y-54045405D01*
X106512811Y-54011379D01*
X106539594Y-54008500D01*
X106595487Y-54008500D01*
X106601939Y-54007128D01*
X106601944Y-54007128D01*
X106688888Y-53988647D01*
X106782288Y-53968794D01*
X106788319Y-53966109D01*
X106950722Y-53893803D01*
X106950724Y-53893802D01*
X106956752Y-53891118D01*
X107111253Y-53778866D01*
X107147218Y-53738923D01*
X107234621Y-53641852D01*
X107234622Y-53641851D01*
X107239040Y-53636944D01*
X107334527Y-53471556D01*
X107393542Y-53289928D01*
X107394286Y-53282855D01*
X107412814Y-53106565D01*
X107413504Y-53100000D01*
X107393542Y-52910072D01*
X107334527Y-52728444D01*
X107239040Y-52563056D01*
X107165863Y-52481785D01*
X107135147Y-52417779D01*
X107133500Y-52397476D01*
X107133500Y-52140763D01*
X107134027Y-52129579D01*
X107135701Y-52122091D01*
X107133562Y-52054032D01*
X107133500Y-52050075D01*
X107133500Y-52022144D01*
X107132994Y-52018138D01*
X107132061Y-52006292D01*
X107131932Y-52002167D01*
X107130673Y-51962110D01*
X107125022Y-51942658D01*
X107121014Y-51923306D01*
X107119467Y-51911063D01*
X107118474Y-51903203D01*
X107113806Y-51891413D01*
X107102200Y-51862097D01*
X107098355Y-51850870D01*
X107093307Y-51833495D01*
X107086018Y-51808407D01*
X107081984Y-51801585D01*
X107081981Y-51801579D01*
X107075706Y-51790968D01*
X107067010Y-51773218D01*
X107062472Y-51761756D01*
X107062469Y-51761751D01*
X107059552Y-51754383D01*
X107033573Y-51718625D01*
X107027057Y-51708707D01*
X107008575Y-51677457D01*
X107004542Y-51670637D01*
X106990218Y-51656313D01*
X106977376Y-51641278D01*
X106965472Y-51624893D01*
X106931406Y-51596711D01*
X106922627Y-51588722D01*
X106376647Y-51042742D01*
X106369113Y-51034463D01*
X106365000Y-51027982D01*
X106315347Y-50981355D01*
X106312506Y-50978601D01*
X106292770Y-50958865D01*
X106289573Y-50956385D01*
X106280551Y-50948680D01*
X106270016Y-50938787D01*
X106248321Y-50918414D01*
X106241375Y-50914595D01*
X106241372Y-50914593D01*
X106230566Y-50908652D01*
X106214047Y-50897801D01*
X106211703Y-50895983D01*
X106198041Y-50885386D01*
X106190772Y-50882241D01*
X106190768Y-50882238D01*
X106157463Y-50867826D01*
X106146813Y-50862609D01*
X106108060Y-50841305D01*
X106088437Y-50836267D01*
X106069734Y-50829863D01*
X106058420Y-50824967D01*
X106058419Y-50824967D01*
X106051145Y-50821819D01*
X106043322Y-50820580D01*
X106043312Y-50820577D01*
X106007476Y-50814901D01*
X105995856Y-50812495D01*
X105960711Y-50803472D01*
X105960710Y-50803472D01*
X105953030Y-50801500D01*
X105932776Y-50801500D01*
X105913065Y-50799949D01*
X105900886Y-50798020D01*
X105893057Y-50796780D01*
X105885165Y-50797526D01*
X105849039Y-50800941D01*
X105837181Y-50801500D01*
X103465774Y-50801500D01*
X103397653Y-50781498D01*
X103351160Y-50727842D01*
X103341056Y-50657568D01*
X103370550Y-50592988D01*
X103392606Y-50572921D01*
X103423962Y-50550555D01*
X103444627Y-50535815D01*
X103614511Y-50366523D01*
X103754463Y-50171758D01*
X103860727Y-49956750D01*
X103930447Y-49727274D01*
X103961752Y-49489492D01*
X103962394Y-49463221D01*
X103963417Y-49421365D01*
X103963417Y-49421361D01*
X103963499Y-49418000D01*
X103957001Y-49338970D01*
X103944271Y-49184124D01*
X103944270Y-49184118D01*
X103943847Y-49178973D01*
X103885420Y-48946364D01*
X103883364Y-48941634D01*
X103883361Y-48941627D01*
X103791847Y-48731159D01*
X103791845Y-48731156D01*
X103789787Y-48726422D01*
X103764010Y-48686576D01*
X103662325Y-48529396D01*
X103662323Y-48529393D01*
X103659515Y-48525053D01*
X103637864Y-48501258D01*
X103501582Y-48351487D01*
X103501576Y-48351481D01*
X103498104Y-48347665D01*
X103494053Y-48344466D01*
X103494049Y-48344462D01*
X103313946Y-48202226D01*
X103309888Y-48199021D01*
X103099922Y-48083113D01*
X102966526Y-48035875D01*
X102878720Y-48004781D01*
X102878716Y-48004780D01*
X102873845Y-48003055D01*
X102868752Y-48002148D01*
X102868749Y-48002147D01*
X102642816Y-47961902D01*
X102642810Y-47961901D01*
X102637727Y-47960996D01*
X102550460Y-47959930D01*
X102403081Y-47958129D01*
X102403079Y-47958129D01*
X102397911Y-47958066D01*
X102160837Y-47994343D01*
X101932871Y-48068854D01*
X101928279Y-48071244D01*
X101928280Y-48071244D01*
X101758800Y-48159470D01*
X101720136Y-48179597D01*
X101716003Y-48182700D01*
X101716000Y-48182702D01*
X101559231Y-48300408D01*
X101528345Y-48323598D01*
X101362648Y-48496990D01*
X101354577Y-48508822D01*
X101299666Y-48553823D01*
X101229141Y-48561994D01*
X101165394Y-48530739D01*
X101157313Y-48522633D01*
X100998104Y-48347665D01*
X100994053Y-48344466D01*
X100994049Y-48344462D01*
X100813946Y-48202226D01*
X100809888Y-48199021D01*
X100599922Y-48083113D01*
X100466526Y-48035875D01*
X100378720Y-48004781D01*
X100378716Y-48004780D01*
X100373845Y-48003055D01*
X100368752Y-48002148D01*
X100368749Y-48002147D01*
X100142816Y-47961902D01*
X100142810Y-47961901D01*
X100137727Y-47960996D01*
X100050460Y-47959930D01*
X99903081Y-47958129D01*
X99903079Y-47958129D01*
X99897911Y-47958066D01*
X99660837Y-47994343D01*
X99432871Y-48068854D01*
X99428279Y-48071244D01*
X99428280Y-48071244D01*
X99258800Y-48159470D01*
X99220136Y-48179597D01*
X99216003Y-48182700D01*
X99216000Y-48182702D01*
X99092402Y-48275502D01*
X99025917Y-48300408D01*
X98956521Y-48285416D01*
X98906229Y-48235251D01*
X98894788Y-48214354D01*
X98818285Y-48112276D01*
X98805724Y-48099715D01*
X98703649Y-48023214D01*
X98688054Y-48014676D01*
X98567606Y-47969522D01*
X98552351Y-47965895D01*
X98501486Y-47960369D01*
X98494672Y-47960000D01*
X97772115Y-47960000D01*
X97756876Y-47964475D01*
X97755671Y-47965865D01*
X97754000Y-47973548D01*
X97754000Y-50857884D01*
X97758475Y-50873123D01*
X97759865Y-50874328D01*
X97767548Y-50875999D01*
X98494669Y-50875999D01*
X98501490Y-50875629D01*
X98552352Y-50870105D01*
X98567604Y-50866479D01*
X98688054Y-50821324D01*
X98703649Y-50812786D01*
X98805724Y-50736285D01*
X98818285Y-50723724D01*
X98894788Y-50621646D01*
X98906255Y-50600701D01*
X98956513Y-50550555D01*
X99025904Y-50535541D01*
X99097259Y-50564266D01*
X99160571Y-50616828D01*
X99313818Y-50706378D01*
X99319304Y-50709584D01*
X99368028Y-50761223D01*
X99377926Y-50793420D01*
X99378562Y-50793257D01*
X99380532Y-50800930D01*
X99381526Y-50808797D01*
X99384445Y-50816168D01*
X99384445Y-50816170D01*
X99397804Y-50849912D01*
X99401649Y-50861142D01*
X99410103Y-50890242D01*
X99413982Y-50903593D01*
X99418015Y-50910412D01*
X99418017Y-50910417D01*
X99424293Y-50921028D01*
X99432988Y-50938776D01*
X99440448Y-50957617D01*
X99445110Y-50964033D01*
X99445110Y-50964034D01*
X99466436Y-50993387D01*
X99472952Y-51003307D01*
X99491083Y-51033964D01*
X99495458Y-51041362D01*
X99509779Y-51055683D01*
X99522619Y-51070716D01*
X99534528Y-51087107D01*
X99540634Y-51092158D01*
X99568605Y-51115298D01*
X99577384Y-51123288D01*
X100281343Y-51827247D01*
X100288887Y-51835537D01*
X100293000Y-51842018D01*
X100298777Y-51847443D01*
X100342667Y-51888658D01*
X100345509Y-51891413D01*
X100365231Y-51911135D01*
X100368355Y-51913558D01*
X100368359Y-51913562D01*
X100368424Y-51913612D01*
X100377445Y-51921317D01*
X100409679Y-51951586D01*
X100416627Y-51955405D01*
X100416629Y-51955407D01*
X100427432Y-51961346D01*
X100443959Y-51972202D01*
X100453698Y-51979757D01*
X100453700Y-51979758D01*
X100459960Y-51984614D01*
X100500540Y-52002174D01*
X100511188Y-52007391D01*
X100538024Y-52022144D01*
X100549940Y-52028695D01*
X100557616Y-52030666D01*
X100557619Y-52030667D01*
X100569562Y-52033733D01*
X100588267Y-52040137D01*
X100606855Y-52048181D01*
X100614678Y-52049420D01*
X100614688Y-52049423D01*
X100650524Y-52055099D01*
X100662144Y-52057505D01*
X100697289Y-52066528D01*
X100704970Y-52068500D01*
X100725224Y-52068500D01*
X100744934Y-52070051D01*
X100764943Y-52073220D01*
X100772835Y-52072474D01*
X100808961Y-52069059D01*
X100820819Y-52068500D01*
X104311526Y-52068500D01*
X104379647Y-52088502D01*
X104426140Y-52142158D01*
X104436244Y-52212432D01*
X104431360Y-52233431D01*
X104406458Y-52310072D01*
X104405768Y-52316633D01*
X104405768Y-52316635D01*
X104389093Y-52475292D01*
X104362080Y-52540949D01*
X104352878Y-52551217D01*
X103946747Y-52957348D01*
X103938461Y-52964888D01*
X103931982Y-52969000D01*
X103926557Y-52974777D01*
X103885357Y-53018651D01*
X103882602Y-53021493D01*
X103862865Y-53041230D01*
X103860385Y-53044427D01*
X103852682Y-53053447D01*
X103822414Y-53085679D01*
X103818595Y-53092625D01*
X103818593Y-53092628D01*
X103812652Y-53103434D01*
X103801801Y-53119953D01*
X103789386Y-53135959D01*
X103786241Y-53143228D01*
X103786238Y-53143232D01*
X103771826Y-53176537D01*
X103766609Y-53187187D01*
X103745305Y-53225940D01*
X103743334Y-53233615D01*
X103743334Y-53233616D01*
X103740267Y-53245562D01*
X103733863Y-53264266D01*
X103725819Y-53282855D01*
X103724580Y-53290678D01*
X103724577Y-53290688D01*
X103718901Y-53326524D01*
X103716495Y-53338144D01*
X103705500Y-53380970D01*
X103705500Y-53401224D01*
X103703949Y-53420934D01*
X103700780Y-53440943D01*
X103701526Y-53448835D01*
X103704941Y-53484961D01*
X103705500Y-53496819D01*
X103705500Y-53924405D01*
X103685498Y-53992526D01*
X103668595Y-54013500D01*
X102559747Y-55122348D01*
X102551461Y-55129888D01*
X102544982Y-55134000D01*
X102539557Y-55139777D01*
X102498357Y-55183651D01*
X102495602Y-55186493D01*
X102475865Y-55206230D01*
X102473385Y-55209427D01*
X102465682Y-55218447D01*
X102435414Y-55250679D01*
X102431595Y-55257625D01*
X102431593Y-55257628D01*
X102425652Y-55268434D01*
X102414801Y-55284953D01*
X102402386Y-55300959D01*
X102399241Y-55308228D01*
X102399238Y-55308232D01*
X102384826Y-55341537D01*
X102379609Y-55352187D01*
X102358305Y-55390940D01*
X102356334Y-55398615D01*
X102356334Y-55398616D01*
X102353267Y-55410562D01*
X102346863Y-55429266D01*
X102338819Y-55447855D01*
X102337580Y-55455678D01*
X102337577Y-55455688D01*
X102331901Y-55491524D01*
X102329495Y-55503144D01*
X102320472Y-55538289D01*
X102318500Y-55545970D01*
X102318500Y-55566224D01*
X102316949Y-55585934D01*
X102313780Y-55605943D01*
X102314526Y-55613835D01*
X102317941Y-55649961D01*
X102318500Y-55661819D01*
X102318500Y-58433406D01*
X102298498Y-58501527D01*
X102281595Y-58522501D01*
X99003276Y-61800819D01*
X98940964Y-61834845D01*
X98897623Y-61836631D01*
X98871568Y-61833177D01*
X98806666Y-61804397D01*
X98767628Y-61745096D01*
X98766847Y-61674104D01*
X98803814Y-61614635D01*
X98805909Y-61612749D01*
X98811253Y-61608866D01*
X98912028Y-61496944D01*
X98934621Y-61471852D01*
X98934622Y-61471851D01*
X98939040Y-61466944D01*
X99016179Y-61333335D01*
X99031223Y-61307279D01*
X99031224Y-61307278D01*
X99034527Y-61301556D01*
X99093542Y-61119928D01*
X99113504Y-60930000D01*
X99093542Y-60740072D01*
X99034527Y-60558444D01*
X98939040Y-60393056D01*
X98865863Y-60311785D01*
X98835147Y-60247779D01*
X98833500Y-60227476D01*
X98833500Y-57138915D01*
X98853502Y-57070794D01*
X98908249Y-57023809D01*
X98930720Y-57013804D01*
X98930723Y-57013802D01*
X98936752Y-57011118D01*
X99091253Y-56898866D01*
X99139685Y-56845077D01*
X99214621Y-56761852D01*
X99214622Y-56761851D01*
X99219040Y-56756944D01*
X99314527Y-56591556D01*
X99373542Y-56409928D01*
X99375853Y-56387945D01*
X99392814Y-56226565D01*
X99393504Y-56220000D01*
X99379907Y-56090634D01*
X99374232Y-56036635D01*
X99374232Y-56036633D01*
X99373542Y-56030072D01*
X99314527Y-55848444D01*
X99284522Y-55796473D01*
X99226632Y-55696206D01*
X99219040Y-55683056D01*
X99091253Y-55541134D01*
X98936752Y-55428882D01*
X98930724Y-55426198D01*
X98930722Y-55426197D01*
X98768319Y-55353891D01*
X98768318Y-55353891D01*
X98762288Y-55351206D01*
X98668887Y-55331353D01*
X98581944Y-55312872D01*
X98581939Y-55312872D01*
X98575487Y-55311500D01*
X98384513Y-55311500D01*
X98378061Y-55312872D01*
X98378056Y-55312872D01*
X98291112Y-55331353D01*
X98197712Y-55351206D01*
X98191682Y-55353891D01*
X98191681Y-55353891D01*
X98029278Y-55426197D01*
X98029276Y-55426198D01*
X98023248Y-55428882D01*
X97868747Y-55541134D01*
X97740960Y-55683056D01*
X97733368Y-55696206D01*
X97675479Y-55796473D01*
X97645473Y-55848444D01*
X97586458Y-56030072D01*
X97585768Y-56036633D01*
X97585768Y-56036635D01*
X97580093Y-56090634D01*
X97566496Y-56220000D01*
X97567186Y-56226565D01*
X97567186Y-56226566D01*
X97579040Y-56339351D01*
X97575772Y-56383854D01*
X97575232Y-56385958D01*
X97566500Y-56419970D01*
X97566500Y-56440224D01*
X97564949Y-56459934D01*
X97561780Y-56479943D01*
X97562526Y-56487835D01*
X97565941Y-56523961D01*
X97566500Y-56535819D01*
X97566500Y-60227476D01*
X97546498Y-60295597D01*
X97534142Y-60311779D01*
X97460960Y-60393056D01*
X97365473Y-60558444D01*
X97306458Y-60740072D01*
X97286496Y-60930000D01*
X97306458Y-61119928D01*
X97365473Y-61301556D01*
X97368776Y-61307278D01*
X97368777Y-61307279D01*
X97383821Y-61333335D01*
X97460960Y-61466944D01*
X97465378Y-61471851D01*
X97465379Y-61471852D01*
X97487972Y-61496944D01*
X97588747Y-61608866D01*
X97743248Y-61721118D01*
X97749276Y-61723802D01*
X97749278Y-61723803D01*
X97839767Y-61764091D01*
X97917712Y-61798794D01*
X97924167Y-61800166D01*
X97924176Y-61800169D01*
X97956642Y-61807070D01*
X98019115Y-61840798D01*
X98053436Y-61902948D01*
X98048708Y-61973787D01*
X98006431Y-62030824D01*
X97995809Y-62038035D01*
X97946450Y-62067987D01*
X97914856Y-62087159D01*
X97738166Y-62240483D01*
X97589835Y-62421386D01*
X97587199Y-62426016D01*
X97587196Y-62426021D01*
X97568699Y-62458516D01*
X97517616Y-62507822D01*
X97447985Y-62521683D01*
X97381915Y-62495699D01*
X97354677Y-62466550D01*
X97285343Y-62363565D01*
X97268202Y-62338104D01*
X97237283Y-62305692D01*
X97138136Y-62201760D01*
X97106724Y-62168832D01*
X97037319Y-62117193D01*
X96923323Y-62032377D01*
X96923320Y-62032375D01*
X96919035Y-62029187D01*
X96892392Y-62015641D01*
X96840736Y-61966938D01*
X96823500Y-61903326D01*
X96823500Y-58594763D01*
X96824027Y-58583579D01*
X96825701Y-58576091D01*
X96823562Y-58508032D01*
X96823500Y-58504075D01*
X96823500Y-58476144D01*
X96822994Y-58472138D01*
X96822061Y-58460292D01*
X96820922Y-58424037D01*
X96820673Y-58416110D01*
X96815022Y-58396658D01*
X96811014Y-58377306D01*
X96809467Y-58365063D01*
X96808474Y-58357203D01*
X96793722Y-58319942D01*
X96792200Y-58316097D01*
X96788355Y-58304870D01*
X96787569Y-58302164D01*
X96776018Y-58262407D01*
X96771984Y-58255585D01*
X96771981Y-58255579D01*
X96765706Y-58244968D01*
X96757010Y-58227218D01*
X96752472Y-58215756D01*
X96752469Y-58215751D01*
X96749552Y-58208383D01*
X96723573Y-58172625D01*
X96717057Y-58162707D01*
X96698575Y-58131457D01*
X96694542Y-58124637D01*
X96680218Y-58110313D01*
X96667376Y-58095278D01*
X96655472Y-58078893D01*
X96621406Y-58050711D01*
X96612627Y-58042722D01*
X93739122Y-55169217D01*
X93705096Y-55106905D01*
X93702907Y-55093292D01*
X93686232Y-54934635D01*
X93686232Y-54934633D01*
X93685542Y-54928072D01*
X93626527Y-54746444D01*
X93531040Y-54581056D01*
X93478403Y-54522596D01*
X93407675Y-54444045D01*
X93407674Y-54444044D01*
X93403253Y-54439134D01*
X93248752Y-54326882D01*
X93242724Y-54324198D01*
X93242722Y-54324197D01*
X93080319Y-54251891D01*
X93080318Y-54251891D01*
X93074288Y-54249206D01*
X92980887Y-54229353D01*
X92893944Y-54210872D01*
X92893939Y-54210872D01*
X92887487Y-54209500D01*
X92696513Y-54209500D01*
X92690061Y-54210872D01*
X92690056Y-54210872D01*
X92561697Y-54238156D01*
X92490906Y-54232754D01*
X92434274Y-54189937D01*
X92409780Y-54123299D01*
X92409500Y-54114909D01*
X92409500Y-50412669D01*
X96042001Y-50412669D01*
X96042371Y-50419490D01*
X96047895Y-50470352D01*
X96051521Y-50485604D01*
X96096676Y-50606054D01*
X96105214Y-50621649D01*
X96181715Y-50723724D01*
X96194276Y-50736285D01*
X96296351Y-50812786D01*
X96311946Y-50821324D01*
X96432394Y-50866478D01*
X96447649Y-50870105D01*
X96498514Y-50875631D01*
X96505328Y-50876000D01*
X97227885Y-50876000D01*
X97243124Y-50871525D01*
X97244329Y-50870135D01*
X97246000Y-50862452D01*
X97246000Y-49690115D01*
X97241525Y-49674876D01*
X97240135Y-49673671D01*
X97232452Y-49672000D01*
X96060116Y-49672000D01*
X96044877Y-49676475D01*
X96043672Y-49677865D01*
X96042001Y-49685548D01*
X96042001Y-50412669D01*
X92409500Y-50412669D01*
X92409500Y-48320594D01*
X92429502Y-48252473D01*
X92446405Y-48231499D01*
X92636499Y-48041405D01*
X92698811Y-48007379D01*
X92725594Y-48004500D01*
X94991800Y-48004500D01*
X95059921Y-48024502D01*
X95079147Y-48040843D01*
X95079420Y-48040540D01*
X95084332Y-48044963D01*
X95088747Y-48049866D01*
X95094086Y-48053745D01*
X95135035Y-48083496D01*
X95243248Y-48162118D01*
X95249276Y-48164802D01*
X95249278Y-48164803D01*
X95399081Y-48231499D01*
X95417712Y-48239794D01*
X95497408Y-48256734D01*
X95598056Y-48278128D01*
X95598061Y-48278128D01*
X95604513Y-48279500D01*
X95795487Y-48279500D01*
X95801939Y-48278128D01*
X95801944Y-48278128D01*
X95869439Y-48263781D01*
X95893183Y-48258734D01*
X95963973Y-48264136D01*
X96020605Y-48306953D01*
X96045099Y-48373590D01*
X96044642Y-48395588D01*
X96042369Y-48416512D01*
X96042000Y-48423328D01*
X96042000Y-49145885D01*
X96046475Y-49161124D01*
X96047865Y-49162329D01*
X96055548Y-49164000D01*
X97227885Y-49164000D01*
X97243124Y-49159525D01*
X97244329Y-49158135D01*
X97246000Y-49150452D01*
X97246000Y-47978116D01*
X97241525Y-47962877D01*
X97240135Y-47961672D01*
X97232452Y-47960001D01*
X96627223Y-47960001D01*
X96559102Y-47939999D01*
X96512609Y-47886343D01*
X96502505Y-47816069D01*
X96518103Y-47771004D01*
X96534527Y-47742556D01*
X96593542Y-47560928D01*
X96599699Y-47502353D01*
X96612814Y-47377565D01*
X96613504Y-47371000D01*
X96606386Y-47303279D01*
X96597610Y-47219774D01*
X121074180Y-47219774D01*
X121074622Y-47227622D01*
X121349110Y-48217388D01*
X121351285Y-48223853D01*
X121370205Y-48271400D01*
X121377774Y-48285126D01*
X121453475Y-48389127D01*
X121465869Y-48401872D01*
X121566864Y-48479790D01*
X121582332Y-48488541D01*
X121701137Y-48534981D01*
X121718443Y-48539040D01*
X121846585Y-48550364D01*
X121862243Y-48549783D01*
X121912745Y-48541513D01*
X121919404Y-48540049D01*
X122904768Y-48266783D01*
X122918259Y-48258397D01*
X122919049Y-48256734D01*
X122918607Y-48248886D01*
X122525143Y-46830100D01*
X122516756Y-46816607D01*
X122515097Y-46815819D01*
X122507246Y-46816261D01*
X121088461Y-47209725D01*
X121074970Y-47218111D01*
X121074180Y-47219774D01*
X96597610Y-47219774D01*
X96594232Y-47187635D01*
X96594232Y-47187633D01*
X96593542Y-47181072D01*
X96534527Y-46999444D01*
X96439040Y-46834056D01*
X96426444Y-46820066D01*
X96315675Y-46697045D01*
X96315674Y-46697044D01*
X96311253Y-46692134D01*
X96156752Y-46579882D01*
X96150724Y-46577198D01*
X96150722Y-46577197D01*
X95988319Y-46504891D01*
X95988318Y-46504891D01*
X95982288Y-46502206D01*
X95888888Y-46482353D01*
X95801944Y-46463872D01*
X95801939Y-46463872D01*
X95795487Y-46462500D01*
X95604513Y-46462500D01*
X95598061Y-46463872D01*
X95598056Y-46463872D01*
X95511112Y-46482353D01*
X95417712Y-46502206D01*
X95411682Y-46504891D01*
X95411681Y-46504891D01*
X95249278Y-46577197D01*
X95249276Y-46577198D01*
X95243248Y-46579882D01*
X95088747Y-46692134D01*
X95084332Y-46697037D01*
X95079420Y-46701460D01*
X95078295Y-46700211D01*
X95024986Y-46733051D01*
X94991800Y-46737500D01*
X92489768Y-46737500D01*
X92478585Y-46736973D01*
X92471092Y-46735298D01*
X92463166Y-46735547D01*
X92463165Y-46735547D01*
X92403002Y-46737438D01*
X92399044Y-46737500D01*
X92371144Y-46737500D01*
X92367154Y-46738004D01*
X92355320Y-46738936D01*
X92311111Y-46740326D01*
X92303495Y-46742539D01*
X92303493Y-46742539D01*
X92291652Y-46745979D01*
X92272293Y-46749988D01*
X92270983Y-46750154D01*
X92252203Y-46752526D01*
X92244837Y-46755442D01*
X92244831Y-46755444D01*
X92211098Y-46768800D01*
X92199868Y-46772645D01*
X92165017Y-46782770D01*
X92157407Y-46784981D01*
X92150584Y-46789016D01*
X92139966Y-46795295D01*
X92122213Y-46803992D01*
X92119703Y-46804986D01*
X92103383Y-46811448D01*
X92079021Y-46829148D01*
X92067612Y-46837437D01*
X92057695Y-46843951D01*
X92019638Y-46866458D01*
X92005317Y-46880779D01*
X91990284Y-46893619D01*
X91973893Y-46905528D01*
X91958037Y-46924695D01*
X91945712Y-46939593D01*
X91937722Y-46948374D01*
X91383742Y-47502353D01*
X91375463Y-47509887D01*
X91368982Y-47514000D01*
X91331077Y-47554365D01*
X91322357Y-47563651D01*
X91319602Y-47566493D01*
X91299865Y-47586230D01*
X91297385Y-47589427D01*
X91289682Y-47598447D01*
X91259414Y-47630679D01*
X91255595Y-47637625D01*
X91255593Y-47637628D01*
X91249652Y-47648434D01*
X91238801Y-47664953D01*
X91226386Y-47680959D01*
X91223241Y-47688228D01*
X91223238Y-47688232D01*
X91208826Y-47721537D01*
X91203609Y-47732187D01*
X91182305Y-47770940D01*
X91180334Y-47778615D01*
X91180334Y-47778616D01*
X91177267Y-47790562D01*
X91170863Y-47809266D01*
X91162819Y-47827855D01*
X91161580Y-47835678D01*
X91161577Y-47835688D01*
X91155901Y-47871524D01*
X91153495Y-47883144D01*
X91142500Y-47925970D01*
X91142500Y-47946224D01*
X91140949Y-47965934D01*
X91137780Y-47985943D01*
X77976356Y-47985943D01*
X77316734Y-46820066D01*
X77305334Y-46809004D01*
X77303532Y-46808641D01*
X77296021Y-46810970D01*
X76030286Y-47527088D01*
X76020226Y-47537456D01*
X73430447Y-47537456D01*
X73743047Y-46416675D01*
X75641706Y-46416675D01*
X75653795Y-46668327D01*
X75654932Y-46677587D01*
X75704084Y-46924695D01*
X75706573Y-46933670D01*
X75758016Y-47076949D01*
X75765978Y-47087863D01*
X75780670Y-47084645D01*
X76710754Y-46558428D01*
X77754297Y-46558428D01*
X77756626Y-46565939D01*
X78473397Y-47832827D01*
X78482814Y-47841965D01*
X78497248Y-47835956D01*
X78635895Y-47718583D01*
X78642545Y-47712047D01*
X78808665Y-47522623D01*
X78814273Y-47515182D01*
X78950573Y-47303279D01*
X78955020Y-47295088D01*
X79058499Y-47065374D01*
X79061690Y-47056607D01*
X79130077Y-46814128D01*
X79131937Y-46804986D01*
X79163924Y-46553548D01*
X79164405Y-46547260D01*
X79166655Y-46461312D01*
X79166504Y-46455003D01*
X79147720Y-46202226D01*
X79147387Y-46200000D01*
X106636496Y-46200000D01*
X106637186Y-46206565D01*
X106653279Y-46359678D01*
X106656458Y-46389928D01*
X106715473Y-46571556D01*
X106810960Y-46736944D01*
X106815378Y-46741851D01*
X106815379Y-46741852D01*
X106880457Y-46814128D01*
X106938747Y-46878866D01*
X107093248Y-46991118D01*
X107099276Y-46993802D01*
X107099278Y-46993803D01*
X107261681Y-47066109D01*
X107267712Y-47068794D01*
X107342285Y-47084645D01*
X107448056Y-47107128D01*
X107448061Y-47107128D01*
X107454513Y-47108500D01*
X107645487Y-47108500D01*
X107651939Y-47107128D01*
X107651944Y-47107128D01*
X107757715Y-47084645D01*
X107832288Y-47068794D01*
X107838319Y-47066109D01*
X108000722Y-46993803D01*
X108000724Y-46993802D01*
X108006752Y-46991118D01*
X108161253Y-46878866D01*
X108219543Y-46814128D01*
X108284621Y-46741852D01*
X108284622Y-46741851D01*
X108289040Y-46736944D01*
X108384527Y-46571556D01*
X108443542Y-46389928D01*
X108446722Y-46359678D01*
X108460907Y-46224707D01*
X108487920Y-46159050D01*
X108497122Y-46148782D01*
X108996504Y-45649400D01*
X120646821Y-45649400D01*
X120647402Y-45665058D01*
X120655672Y-45715560D01*
X120657136Y-45722219D01*
X120930402Y-46707583D01*
X120938788Y-46721074D01*
X120940451Y-46721864D01*
X120948299Y-46721422D01*
X121090133Y-46682088D01*
X123013004Y-46682088D01*
X123013446Y-46689939D01*
X123406910Y-48108724D01*
X123415296Y-48122215D01*
X123416959Y-48123005D01*
X123424807Y-48122563D01*
X124414573Y-47848075D01*
X124421038Y-47845900D01*
X124468585Y-47826980D01*
X124482311Y-47819411D01*
X124586312Y-47743710D01*
X124599057Y-47731316D01*
X124676975Y-47630321D01*
X124685726Y-47614853D01*
X124732166Y-47496048D01*
X124736225Y-47478742D01*
X124747549Y-47350600D01*
X124746968Y-47334942D01*
X124738698Y-47284440D01*
X124737234Y-47277781D01*
X124463968Y-46292417D01*
X124455582Y-46278926D01*
X124453919Y-46278136D01*
X124446071Y-46278578D01*
X123027285Y-46672042D01*
X123013792Y-46680429D01*
X123013004Y-46682088D01*
X121090133Y-46682088D01*
X122367085Y-46327958D01*
X122380578Y-46319571D01*
X122381366Y-46317912D01*
X122380924Y-46310061D01*
X121987460Y-44891276D01*
X121979074Y-44877785D01*
X121977411Y-44876995D01*
X121969563Y-44877437D01*
X120979797Y-45151925D01*
X120973332Y-45154100D01*
X120925785Y-45173020D01*
X120912059Y-45180589D01*
X120808058Y-45256290D01*
X120795313Y-45268684D01*
X120717395Y-45369679D01*
X120708644Y-45385147D01*
X120662204Y-45503952D01*
X120658145Y-45521258D01*
X120646821Y-45649400D01*
X108996504Y-45649400D01*
X110130500Y-44515405D01*
X110192812Y-44481379D01*
X110219595Y-44478500D01*
X111006800Y-44478500D01*
X111074921Y-44498502D01*
X111094147Y-44514843D01*
X111094420Y-44514540D01*
X111099332Y-44518963D01*
X111103747Y-44523866D01*
X111258248Y-44636118D01*
X111264276Y-44638802D01*
X111264278Y-44638803D01*
X111426681Y-44711109D01*
X111432712Y-44713794D01*
X111523614Y-44733116D01*
X111613056Y-44752128D01*
X111613061Y-44752128D01*
X111619513Y-44753500D01*
X111810487Y-44753500D01*
X111816939Y-44752128D01*
X111816944Y-44752128D01*
X111858635Y-44743266D01*
X122475321Y-44743266D01*
X122475763Y-44751114D01*
X122869227Y-46169900D01*
X122877614Y-46183393D01*
X122879273Y-46184181D01*
X122887124Y-46183739D01*
X124305909Y-45790275D01*
X124319400Y-45781889D01*
X124320190Y-45780226D01*
X124319748Y-45772378D01*
X124045260Y-44782612D01*
X124043085Y-44776147D01*
X124024165Y-44728600D01*
X124016596Y-44714874D01*
X123940895Y-44610873D01*
X123928501Y-44598128D01*
X123827506Y-44520210D01*
X123812038Y-44511459D01*
X123693233Y-44465019D01*
X123675927Y-44460960D01*
X123547785Y-44449636D01*
X123532127Y-44450217D01*
X123481625Y-44458487D01*
X123474966Y-44459951D01*
X122489602Y-44733217D01*
X122476111Y-44741603D01*
X122475321Y-44743266D01*
X111858635Y-44743266D01*
X111906386Y-44733116D01*
X111997288Y-44713794D01*
X112003319Y-44711109D01*
X112165722Y-44638803D01*
X112165724Y-44638802D01*
X112171752Y-44636118D01*
X112326253Y-44523866D01*
X112349091Y-44498502D01*
X112449621Y-44386852D01*
X112449622Y-44386851D01*
X112454040Y-44381944D01*
X112541994Y-44229604D01*
X112546223Y-44222279D01*
X112546224Y-44222278D01*
X112549527Y-44216556D01*
X112608542Y-44034928D01*
X112615401Y-43969673D01*
X112627814Y-43851565D01*
X112628504Y-43845000D01*
X112608542Y-43655072D01*
X112549527Y-43473444D01*
X112454040Y-43308056D01*
X112443939Y-43296837D01*
X112330675Y-43171045D01*
X112330674Y-43171044D01*
X112326253Y-43166134D01*
X112171752Y-43053882D01*
X112165724Y-43051198D01*
X112165722Y-43051197D01*
X112003319Y-42978891D01*
X112003318Y-42978891D01*
X111997288Y-42976206D01*
X111893862Y-42954222D01*
X111816944Y-42937872D01*
X111816939Y-42937872D01*
X111810487Y-42936500D01*
X111619513Y-42936500D01*
X111613061Y-42937872D01*
X111613056Y-42937872D01*
X111536138Y-42954222D01*
X111432712Y-42976206D01*
X111426682Y-42978891D01*
X111426681Y-42978891D01*
X111264278Y-43051197D01*
X111264276Y-43051198D01*
X111258248Y-43053882D01*
X111103747Y-43166134D01*
X111099332Y-43171037D01*
X111094420Y-43175460D01*
X111093295Y-43174211D01*
X111039986Y-43207051D01*
X111006800Y-43211500D01*
X109983767Y-43211500D01*
X109972584Y-43210973D01*
X109965091Y-43209298D01*
X109957165Y-43209547D01*
X109957164Y-43209547D01*
X109897001Y-43211438D01*
X109893043Y-43211500D01*
X109865144Y-43211500D01*
X109861154Y-43212004D01*
X109849320Y-43212936D01*
X109805111Y-43214326D01*
X109797497Y-43216538D01*
X109797492Y-43216539D01*
X109785659Y-43219977D01*
X109766296Y-43223988D01*
X109746203Y-43226526D01*
X109738836Y-43229443D01*
X109738831Y-43229444D01*
X109705092Y-43242802D01*
X109693865Y-43246646D01*
X109651407Y-43258982D01*
X109644581Y-43263019D01*
X109633972Y-43269293D01*
X109616224Y-43277988D01*
X109597383Y-43285448D01*
X109590967Y-43290110D01*
X109590966Y-43290110D01*
X109561613Y-43311436D01*
X109551693Y-43317952D01*
X109520465Y-43336420D01*
X109520462Y-43336422D01*
X109513638Y-43340458D01*
X109499317Y-43354779D01*
X109484284Y-43367619D01*
X109467893Y-43379528D01*
X109462842Y-43385634D01*
X109439702Y-43413605D01*
X109431712Y-43422384D01*
X107599500Y-45254595D01*
X107537188Y-45288621D01*
X107510405Y-45291500D01*
X107454513Y-45291500D01*
X107448061Y-45292872D01*
X107448056Y-45292872D01*
X107361113Y-45311353D01*
X107267712Y-45331206D01*
X107261682Y-45333891D01*
X107261681Y-45333891D01*
X107099278Y-45406197D01*
X107099276Y-45406198D01*
X107093248Y-45408882D01*
X106938747Y-45521134D01*
X106810960Y-45663056D01*
X106715473Y-45828444D01*
X106656458Y-46010072D01*
X106636496Y-46200000D01*
X79147387Y-46200000D01*
X79146344Y-46193020D01*
X79090737Y-45947278D01*
X79088013Y-45938367D01*
X79049553Y-45839468D01*
X79040961Y-45828317D01*
X79027186Y-45831524D01*
X77765722Y-46545226D01*
X77754660Y-46556626D01*
X77754297Y-46558428D01*
X76710754Y-46558428D01*
X77041894Y-46371078D01*
X77052956Y-46359678D01*
X77053319Y-46357876D01*
X77050990Y-46350365D01*
X76332923Y-45081186D01*
X76322802Y-45071365D01*
X76313095Y-45075153D01*
X76139154Y-45230401D01*
X76132669Y-45237117D01*
X75971569Y-45430818D01*
X75966154Y-45438410D01*
X75835454Y-45653798D01*
X75831216Y-45662115D01*
X75733789Y-45894451D01*
X75730828Y-45903301D01*
X75668814Y-46147483D01*
X75667192Y-46156680D01*
X75641951Y-46407350D01*
X75641706Y-46416675D01*
X73743047Y-46416675D01*
X74188795Y-44818514D01*
X76771466Y-44818514D01*
X76774541Y-44830108D01*
X77490882Y-46096238D01*
X77502282Y-46107300D01*
X77504084Y-46107663D01*
X77511595Y-46105334D01*
X78777114Y-45389338D01*
X78786787Y-45379369D01*
X78781469Y-45365940D01*
X78706468Y-45270802D01*
X78700174Y-45263934D01*
X78516664Y-45091304D01*
X78509410Y-45085430D01*
X78302405Y-44941825D01*
X78294370Y-44937092D01*
X78068401Y-44825657D01*
X78059768Y-44822169D01*
X77819806Y-44745357D01*
X77810746Y-44743181D01*
X77562068Y-44702681D01*
X77552781Y-44701869D01*
X77300861Y-44698571D01*
X77291550Y-44699141D01*
X77041905Y-44733116D01*
X77032786Y-44735054D01*
X76790916Y-44805553D01*
X76782869Y-44808561D01*
X76771466Y-44818514D01*
X74188795Y-44818514D01*
X74840281Y-42482708D01*
X76688437Y-42482708D01*
X76701259Y-42627801D01*
X76754287Y-42763462D01*
X76843260Y-42878787D01*
X76850518Y-42884070D01*
X76850520Y-42884072D01*
X76946896Y-42954222D01*
X76961025Y-42964506D01*
X76968363Y-42967426D01*
X77015970Y-42986372D01*
X77015978Y-42986375D01*
X77019140Y-42987633D01*
X79520983Y-43681455D01*
X79582708Y-43691563D01*
X79727801Y-43678741D01*
X79736163Y-43675473D01*
X79736165Y-43675472D01*
X79813643Y-43645187D01*
X79863462Y-43625713D01*
X79978787Y-43536740D01*
X79984070Y-43529482D01*
X79984072Y-43529480D01*
X80059857Y-43425362D01*
X80064506Y-43418975D01*
X80084943Y-43367620D01*
X80086372Y-43364030D01*
X80086375Y-43364022D01*
X80087633Y-43360860D01*
X80232536Y-42838356D01*
X93291500Y-42838356D01*
X93291665Y-42840624D01*
X93291665Y-42840636D01*
X93294817Y-42884072D01*
X93306439Y-43044241D01*
X93319958Y-43105474D01*
X93363600Y-43303148D01*
X93366149Y-43314695D01*
X93415023Y-43443696D01*
X93450275Y-43536740D01*
X93464276Y-43573696D01*
X93598764Y-43815820D01*
X93766795Y-44035993D01*
X93770061Y-44039186D01*
X93770063Y-44039188D01*
X93865822Y-44132798D01*
X93964849Y-44229604D01*
X94109898Y-44335182D01*
X94180887Y-44386852D01*
X94188778Y-44392596D01*
X94433890Y-44521556D01*
X94438188Y-44523074D01*
X94438193Y-44523076D01*
X94627879Y-44590061D01*
X94695051Y-44613782D01*
X94966790Y-44667341D01*
X94971347Y-44667568D01*
X94971348Y-44667568D01*
X95238846Y-44680885D01*
X95238852Y-44680885D01*
X95243415Y-44681112D01*
X95519130Y-44654807D01*
X95523564Y-44653722D01*
X95523570Y-44653721D01*
X95783725Y-44590061D01*
X95788159Y-44588976D01*
X95792385Y-44587264D01*
X95792389Y-44587263D01*
X96040639Y-44486711D01*
X96040640Y-44486711D01*
X96044868Y-44484998D01*
X96283878Y-44345052D01*
X96500182Y-44172069D01*
X96689250Y-43969673D01*
X96847120Y-43742104D01*
X96911043Y-43613615D01*
X96968453Y-43498216D01*
X96968454Y-43498213D01*
X96970486Y-43494129D01*
X96996180Y-43415750D01*
X97055343Y-43235276D01*
X97055344Y-43235270D01*
X97056763Y-43230943D01*
X97060911Y-43207051D01*
X97103487Y-42961840D01*
X97103488Y-42961832D01*
X97104143Y-42958059D01*
X97105236Y-42936105D01*
X97108422Y-42872113D01*
X97108422Y-42872105D01*
X97108500Y-42870542D01*
X97108500Y-42838356D01*
X102891500Y-42838356D01*
X102891665Y-42840624D01*
X102891665Y-42840636D01*
X102894817Y-42884072D01*
X102906439Y-43044241D01*
X102919958Y-43105474D01*
X102963600Y-43303148D01*
X102966149Y-43314695D01*
X103015023Y-43443696D01*
X103050275Y-43536740D01*
X103064276Y-43573696D01*
X103198764Y-43815820D01*
X103366795Y-44035993D01*
X103370061Y-44039186D01*
X103370063Y-44039188D01*
X103465822Y-44132798D01*
X103564849Y-44229604D01*
X103709898Y-44335182D01*
X103780887Y-44386852D01*
X103788778Y-44392596D01*
X104033890Y-44521556D01*
X104038188Y-44523074D01*
X104038193Y-44523076D01*
X104227879Y-44590061D01*
X104295051Y-44613782D01*
X104566790Y-44667341D01*
X104571347Y-44667568D01*
X104571348Y-44667568D01*
X104838846Y-44680885D01*
X104838852Y-44680885D01*
X104843415Y-44681112D01*
X105119130Y-44654807D01*
X105123564Y-44653722D01*
X105123570Y-44653721D01*
X105383725Y-44590061D01*
X105388159Y-44588976D01*
X105392385Y-44587264D01*
X105392389Y-44587263D01*
X105640639Y-44486711D01*
X105640640Y-44486711D01*
X105644868Y-44484998D01*
X105883878Y-44345052D01*
X106100182Y-44172069D01*
X106289250Y-43969673D01*
X106447120Y-43742104D01*
X106511043Y-43613615D01*
X106568453Y-43498216D01*
X106568454Y-43498213D01*
X106570486Y-43494129D01*
X106596180Y-43415750D01*
X106655343Y-43235276D01*
X106655344Y-43235270D01*
X106656763Y-43230943D01*
X106660911Y-43207051D01*
X106703487Y-42961840D01*
X106703488Y-42961832D01*
X106704143Y-42958059D01*
X106705236Y-42936105D01*
X106708422Y-42872113D01*
X106708422Y-42872105D01*
X106708500Y-42870542D01*
X106708500Y-41997644D01*
X106701513Y-41901344D01*
X106693891Y-41796311D01*
X106693561Y-41791759D01*
X106659104Y-41635687D01*
X119598166Y-41635687D01*
X119610706Y-41896756D01*
X119661697Y-42153104D01*
X119750019Y-42399100D01*
X119787843Y-42469495D01*
X119816746Y-42523285D01*
X119873730Y-42629339D01*
X119876525Y-42633082D01*
X119876527Y-42633085D01*
X120027323Y-42835025D01*
X120027328Y-42835031D01*
X120030115Y-42838763D01*
X120033424Y-42842043D01*
X120033429Y-42842049D01*
X120171471Y-42978891D01*
X120215736Y-43022771D01*
X120219498Y-43025529D01*
X120219501Y-43025532D01*
X120405968Y-43162255D01*
X120426517Y-43177322D01*
X120430660Y-43179502D01*
X120430662Y-43179503D01*
X120653677Y-43296837D01*
X120653682Y-43296839D01*
X120657827Y-43299020D01*
X120819060Y-43355326D01*
X120875023Y-43374869D01*
X120904583Y-43385192D01*
X120909176Y-43386064D01*
X121156778Y-43433072D01*
X121156781Y-43433072D01*
X121161367Y-43433943D01*
X121291951Y-43439074D01*
X121417868Y-43444022D01*
X121417874Y-43444022D01*
X121422536Y-43444205D01*
X121501970Y-43435505D01*
X121677700Y-43416260D01*
X121677705Y-43416259D01*
X121682353Y-43415750D01*
X121686877Y-43414559D01*
X121930587Y-43350396D01*
X121930589Y-43350395D01*
X121935110Y-43349205D01*
X121942410Y-43346069D01*
X122135712Y-43263019D01*
X122175255Y-43246030D01*
X122180472Y-43242802D01*
X122393540Y-43110952D01*
X122393541Y-43110952D01*
X122397512Y-43108494D01*
X122401075Y-43105477D01*
X122401080Y-43105474D01*
X122593432Y-42942635D01*
X122593433Y-42942634D01*
X122596998Y-42939616D01*
X122656578Y-42871678D01*
X122766250Y-42746622D01*
X122766254Y-42746617D01*
X122769332Y-42743107D01*
X122910726Y-42523285D01*
X123018076Y-42284977D01*
X123089023Y-42033420D01*
X123105825Y-41901344D01*
X123121609Y-41777269D01*
X123121609Y-41777265D01*
X123122007Y-41774139D01*
X123124424Y-41681848D01*
X123112825Y-41525765D01*
X123105400Y-41425848D01*
X123105399Y-41425844D01*
X123105054Y-41421196D01*
X123093718Y-41371096D01*
X123048401Y-41170828D01*
X123047370Y-41166271D01*
X123028596Y-41117994D01*
X122954333Y-40927024D01*
X122954332Y-40927021D01*
X122952640Y-40922671D01*
X122822944Y-40695750D01*
X122661131Y-40490491D01*
X122470756Y-40311405D01*
X122284623Y-40182279D01*
X122259844Y-40165089D01*
X122259841Y-40165087D01*
X122256002Y-40162424D01*
X122241181Y-40155115D01*
X122025774Y-40048888D01*
X122025771Y-40048887D01*
X122021586Y-40046823D01*
X121975442Y-40032052D01*
X121777116Y-39968568D01*
X121772658Y-39967141D01*
X121514686Y-39925127D01*
X121400935Y-39923638D01*
X121258015Y-39921767D01*
X121258012Y-39921767D01*
X121253338Y-39921706D01*
X120994355Y-39956952D01*
X120743426Y-40030091D01*
X120739173Y-40032051D01*
X120739172Y-40032052D01*
X120702652Y-40048888D01*
X120506065Y-40139516D01*
X120467060Y-40165089D01*
X120291397Y-40280258D01*
X120291392Y-40280262D01*
X120287484Y-40282824D01*
X120092487Y-40456866D01*
X119925356Y-40657818D01*
X119922927Y-40661821D01*
X119796552Y-40870081D01*
X119789764Y-40881267D01*
X119688690Y-41122303D01*
X119624352Y-41375631D01*
X119598166Y-41635687D01*
X106659104Y-41635687D01*
X106633851Y-41521305D01*
X106535724Y-41262304D01*
X106401236Y-41020180D01*
X106233205Y-40800007D01*
X106222383Y-40789427D01*
X106130707Y-40699808D01*
X106035151Y-40606396D01*
X105875913Y-40490491D01*
X105814914Y-40446091D01*
X105814911Y-40446089D01*
X105811222Y-40443404D01*
X105566110Y-40314444D01*
X105561812Y-40312926D01*
X105561807Y-40312924D01*
X105309256Y-40223739D01*
X105304949Y-40222218D01*
X105033210Y-40168659D01*
X105028653Y-40168432D01*
X105028652Y-40168432D01*
X104761154Y-40155115D01*
X104761148Y-40155115D01*
X104756585Y-40154888D01*
X104480870Y-40181193D01*
X104476436Y-40182278D01*
X104476430Y-40182279D01*
X104216275Y-40245939D01*
X104211841Y-40247024D01*
X104207615Y-40248736D01*
X104207611Y-40248737D01*
X104096781Y-40293628D01*
X103955132Y-40351002D01*
X103716122Y-40490948D01*
X103499818Y-40663931D01*
X103310750Y-40866327D01*
X103152880Y-41093896D01*
X103138748Y-41122303D01*
X103071084Y-41258313D01*
X103029514Y-41341871D01*
X102943237Y-41605057D01*
X102942457Y-41609548D01*
X102942457Y-41609549D01*
X102910821Y-41791759D01*
X102895857Y-41877941D01*
X102891500Y-41965458D01*
X102891500Y-42838356D01*
X97108500Y-42838356D01*
X97108500Y-41997644D01*
X97101513Y-41901344D01*
X97093891Y-41796311D01*
X97093561Y-41791759D01*
X97033851Y-41521305D01*
X96935724Y-41262304D01*
X96801236Y-41020180D01*
X96633205Y-40800007D01*
X96622383Y-40789427D01*
X96530707Y-40699808D01*
X96435151Y-40606396D01*
X96275913Y-40490491D01*
X96214914Y-40446091D01*
X96214911Y-40446089D01*
X96211222Y-40443404D01*
X95966110Y-40314444D01*
X95961812Y-40312926D01*
X95961807Y-40312924D01*
X95709256Y-40223739D01*
X95704949Y-40222218D01*
X95433210Y-40168659D01*
X95428653Y-40168432D01*
X95428652Y-40168432D01*
X95161154Y-40155115D01*
X95161148Y-40155115D01*
X95156585Y-40154888D01*
X94880870Y-40181193D01*
X94876436Y-40182278D01*
X94876430Y-40182279D01*
X94616275Y-40245939D01*
X94611841Y-40247024D01*
X94607615Y-40248736D01*
X94607611Y-40248737D01*
X94496781Y-40293628D01*
X94355132Y-40351002D01*
X94116122Y-40490948D01*
X93899818Y-40663931D01*
X93710750Y-40866327D01*
X93552880Y-41093896D01*
X93538748Y-41122303D01*
X93471084Y-41258313D01*
X93429514Y-41341871D01*
X93343237Y-41605057D01*
X93342457Y-41609548D01*
X93342457Y-41609549D01*
X93310821Y-41791759D01*
X93295857Y-41877941D01*
X93291500Y-41965458D01*
X93291500Y-42838356D01*
X80232536Y-42838356D01*
X80781455Y-40859017D01*
X80791563Y-40797292D01*
X80778741Y-40652199D01*
X80759788Y-40603710D01*
X80728981Y-40524899D01*
X80725713Y-40516538D01*
X80636740Y-40401213D01*
X80629482Y-40395930D01*
X80629480Y-40395928D01*
X80525362Y-40320143D01*
X80518975Y-40315494D01*
X80499495Y-40307742D01*
X80464030Y-40293628D01*
X80464022Y-40293625D01*
X80460860Y-40292367D01*
X77959017Y-39598545D01*
X77897292Y-39588437D01*
X77752199Y-39601259D01*
X77743837Y-39604527D01*
X77743835Y-39604528D01*
X77666357Y-39634813D01*
X77616538Y-39654287D01*
X77501213Y-39743260D01*
X77495930Y-39750518D01*
X77495928Y-39750520D01*
X77422549Y-39851333D01*
X77415494Y-39861025D01*
X77412574Y-39868363D01*
X77393628Y-39915970D01*
X77393625Y-39915978D01*
X77392367Y-39919140D01*
X76698545Y-42420983D01*
X76688437Y-42482708D01*
X74840281Y-42482708D01*
X76092267Y-37993902D01*
X76109433Y-37956916D01*
X76409520Y-37515485D01*
X76464359Y-37470394D01*
X76473620Y-37466874D01*
X76979991Y-37296869D01*
X77020093Y-37290317D01*
X99991838Y-37290317D01*
X123042580Y-37290461D01*
G37*
%TD.AperFunction*%
%TD*%
M02*
