%TF.GenerationSoftware,KiCad,Pcbnew,6.0.11-2627ca5db0~126~ubuntu22.04.1*%
%TF.CreationDate,2024-08-23T15:04:18+02:00*%
%TF.ProjectId,PowerMeTer,506f7765-724d-4655-9465-722e6b696361,rev?*%
%TF.SameCoordinates,Original*%
%TF.FileFunction,Paste,Top*%
%TF.FilePolarity,Positive*%
%FSLAX46Y46*%
G04 Gerber Fmt 4.6, Leading zero omitted, Abs format (unit mm)*
G04 Created by KiCad (PCBNEW 6.0.11-2627ca5db0~126~ubuntu22.04.1) date 2024-08-23 15:04:18*
%MOMM*%
%LPD*%
G01*
G04 APERTURE LIST*
G04 Aperture macros list*
%AMRoundRect*
0 Rectangle with rounded corners*
0 $1 Rounding radius*
0 $2 $3 $4 $5 $6 $7 $8 $9 X,Y pos of 4 corners*
0 Add a 4 corners polygon primitive as box body*
4,1,4,$2,$3,$4,$5,$6,$7,$8,$9,$2,$3,0*
0 Add four circle primitives for the rounded corners*
1,1,$1+$1,$2,$3*
1,1,$1+$1,$4,$5*
1,1,$1+$1,$6,$7*
1,1,$1+$1,$8,$9*
0 Add four rect primitives between the rounded corners*
20,1,$1+$1,$2,$3,$4,$5,0*
20,1,$1+$1,$4,$5,$6,$7,0*
20,1,$1+$1,$6,$7,$8,$9,0*
20,1,$1+$1,$8,$9,$2,$3,0*%
G04 Aperture macros list end*
%ADD10RoundRect,0.250000X0.262500X0.450000X-0.262500X0.450000X-0.262500X-0.450000X0.262500X-0.450000X0*%
%ADD11RoundRect,0.250000X-0.262500X-0.450000X0.262500X-0.450000X0.262500X0.450000X-0.262500X0.450000X0*%
%ADD12RoundRect,0.150000X0.150000X-0.825000X0.150000X0.825000X-0.150000X0.825000X-0.150000X-0.825000X0*%
%ADD13R,3.050000X2.750000*%
%ADD14R,2.200000X1.200000*%
%ADD15RoundRect,0.243750X0.456250X-0.243750X0.456250X0.243750X-0.456250X0.243750X-0.456250X-0.243750X0*%
%ADD16RoundRect,0.250000X-0.475000X0.250000X-0.475000X-0.250000X0.475000X-0.250000X0.475000X0.250000X0*%
%ADD17RoundRect,0.250000X-0.450000X0.262500X-0.450000X-0.262500X0.450000X-0.262500X0.450000X0.262500X0*%
%ADD18RoundRect,0.150000X-0.150000X0.825000X-0.150000X-0.825000X0.150000X-0.825000X0.150000X0.825000X0*%
%ADD19RoundRect,0.250000X0.450000X-0.262500X0.450000X0.262500X-0.450000X0.262500X-0.450000X-0.262500X0*%
%ADD20RoundRect,0.250000X-0.250000X-0.475000X0.250000X-0.475000X0.250000X0.475000X-0.250000X0.475000X0*%
G04 APERTURE END LIST*
D10*
%TO.C,R7*%
X115421500Y-45750000D03*
X113596500Y-45750000D03*
%TD*%
D11*
%TO.C,R2*%
X95308500Y-58166000D03*
X97133500Y-58166000D03*
%TD*%
D12*
%TO.C,U1*%
X108045000Y-54675000D03*
X109315000Y-54675000D03*
X110585000Y-54675000D03*
X111855000Y-54675000D03*
X111855000Y-49725000D03*
X110585000Y-49725000D03*
X109315000Y-49725000D03*
X108045000Y-49725000D03*
%TD*%
D11*
%TO.C,R1*%
X89297500Y-43690000D03*
X91122500Y-43690000D03*
%TD*%
D10*
%TO.C,R5*%
X106023500Y-58166000D03*
X104198500Y-58166000D03*
%TD*%
D13*
%TO.C,Q1*%
X78285000Y-58475000D03*
X78285000Y-55425000D03*
X81635000Y-58475000D03*
X81635000Y-55425000D03*
D14*
X86260000Y-59230000D03*
X86260000Y-54670000D03*
%TD*%
D15*
%TO.C,D1*%
X100000000Y-43355500D03*
X100000000Y-41480500D03*
%TD*%
D16*
%TO.C,C2*%
X110750000Y-62050000D03*
X110750000Y-63950000D03*
%TD*%
D17*
%TO.C,R13*%
X99640000Y-53157500D03*
X99640000Y-54982500D03*
%TD*%
D18*
%TO.C,U2*%
X117555000Y-49725000D03*
X116285000Y-49725000D03*
X115015000Y-49725000D03*
X113745000Y-49725000D03*
X113745000Y-54675000D03*
X115015000Y-54675000D03*
X116285000Y-54675000D03*
X117555000Y-54675000D03*
%TD*%
D19*
%TO.C,R6*%
X113790000Y-59852500D03*
X113790000Y-58027500D03*
%TD*%
D11*
%TO.C,R3*%
X109509000Y-45750000D03*
X111334000Y-45750000D03*
%TD*%
D10*
%TO.C,R4*%
X101324500Y-58166000D03*
X99499500Y-58166000D03*
%TD*%
D19*
%TO.C,R14*%
X96900000Y-54982500D03*
X96900000Y-53157500D03*
%TD*%
%TO.C,R8*%
X86160000Y-51202500D03*
X86160000Y-49377500D03*
%TD*%
D17*
%TO.C,R11*%
X90506000Y-52126500D03*
X90506000Y-53951500D03*
%TD*%
D20*
%TO.C,C1*%
X108225000Y-58293000D03*
X110125000Y-58293000D03*
%TD*%
D17*
%TO.C,R12*%
X90379000Y-48086000D03*
X90379000Y-49911000D03*
%TD*%
D19*
%TO.C,R10*%
X118827000Y-59840500D03*
X118827000Y-58015500D03*
%TD*%
%TO.C,R9*%
X116287000Y-59840500D03*
X116287000Y-58015500D03*
%TD*%
M02*
