M48
; DRILL file {KiCad 6.0.11-2627ca5db0~126~ubuntu22.04.1} date Fr 23 Aug 2024 15:04:20
; FORMAT={-:-/ absolute / inch / decimal}
; #@! TF.CreationDate,2024-08-23T15:04:20+02:00
; #@! TF.GenerationSoftware,Kicad,Pcbnew,6.0.11-2627ca5db0~126~ubuntu22.04.1
; #@! TF.FileFunction,Plated,1,2,PTH
FMAT,2
INCH
; #@! TA.AperFunction,Plated,PTH,ViaDrill
T1C0.0157
; #@! TA.AperFunction,Plated,PTH,ComponentDrill
T2C0.0394
; #@! TA.AperFunction,Plated,PTH,ComponentDrill
T3C0.0469
; #@! TA.AperFunction,Plated,PTH,ComponentDrill
T4C0.0472
; #@! TA.AperFunction,Plated,PTH,ComponentDrill
T5C0.0512
%
G90
G05
T1
X3.3457Y-2.0866
X3.3932Y-2.455
X3.5571Y-1.8598
X3.6532Y-2.17
X3.7677Y-1.865
X3.8661Y-2.3988
X3.8772Y-2.2134
X3.939Y-1.7776
X4.0622Y-2.1102
X4.0949Y-2.4
X4.1457Y-2.0669
X4.1929Y-2.0906
X4.2343Y-1.8189
X4.3819Y-2.2323
X4.3982Y-1.7262
X4.4469Y-1.8947
X4.6831Y-2.185
T2
X3.8386Y-1.9456
X3.937Y-1.9456
X4.0354Y-1.9456
T3
X3.687Y-2.4972
X3.787Y-2.4972
X3.887Y-2.4972
X3.987Y-2.4972
X4.087Y-2.4972
X4.187Y-2.4972
T5
X3.0474Y-1.8291
X3.1Y-1.6394
X4.778Y-1.641
X4.8306Y-1.8307
T4
G00X3.748Y-1.6877
M15
G01X3.748Y-1.6523
M16
G05
G00X4.126Y-1.6877
M15
G01X4.126Y-1.6523
M16
G05
T0
M30
